<svg class="icon" xmlns="http://www.w3.org/2000/svg" xlink="http://www.w3.org/1999/xlink" version="1.1" x="0px" y="0px" width="100px" height="100px" viewBox="-5.611 -19.506 112.223 140" enable-background="new 14.389 0.494 72.223 100" space="preserve">
	<path fill="#666" d="M82.444,12.994H71.137c-0.62-2.391-2.775-4.167-5.359-4.167h-8.474c0.092-0.449,0.141-0.913,0.141-1.389  c0-3.829-3.115-6.944-6.944-6.944s-6.944,3.116-6.944,6.944c0,0.476,0.049,0.94,0.141,1.389h-8.475  c-2.585,0-4.739,1.774-5.359,4.167H18.556c-2.302,0-4.167,1.865-4.167,4.167v79.167c0,2.302,1.865,4.167,4.167,4.167h63.889  c2.302,0,4.167-1.865,4.167-4.167V17.161C86.611,14.859,84.746,12.994,82.444,12.994z M46.333,7.438  c0-2.297,1.869-4.167,4.167-4.167s4.167,1.869,4.167,4.167c0,0.49-0.101,0.952-0.257,1.389c-0.575,1.612-2.103,2.778-3.91,2.778  c-1.808,0-3.335-1.166-3.91-2.778C46.434,8.391,46.333,7.928,46.333,7.438z M81.056,92.161H19.944V18.55h9.722v1.389v2.778h41.667  v-2.778V18.55h9.723V92.161z"></path>
	<rect fill="#666" x="25.5" y="67.161" width="50" height="2.777"></rect>
	<rect fill="#666" x="25.5" y="75.494" width="50" height="2.777"></rect>
	<rect fill="#666" x="25.5" y="83.827" width="50" height="2.778"></rect>
	<path fill="#666" d="M65.083,55.355c-3.464,0.541-2.321,0.325-5.121,0.975c-3.355,0.777-6.296,1.184-8.877,1.177  c-3.254-0.012-5.971-0.8-8.115-2.373c-3.723-2.729-5.042-7.493-5.042-10.747c0-8.584,7.64-13.157,13.158-13.157  c9.481,0,11.988,6.695,11.988,10.235c0,2.774-1.568,7.894-3.802,7.894c-1.416,0-2.045-0.33-2.045-2.082l0.874-11.076h-3.507  l-0.306,1.219c-0.924-1.105-2.17-1.803-3.788-1.803c-4.752,0-7.87,4.289-8.017,8.186c-0.121,3.213,0.68,10.101,8.017,9.36  c1.213-0.124,2.533-0.869,3.61-2.143c1.021,1.562,2.796,2.434,5.161,2.434c5.905,0,7.896-8.229,7.896-11.989  c0-5.757-4.283-14.327-16.082-14.327c-7.234,0-17.251,5.994-17.251,17.249c0,4.412,1.765,10.415,6.714,14.046  c2.867,2.102,6.393,3.164,10.538,3.173c2.938,0,6.297-0.381,9.938-1.325c0.024-0.007,1.614-0.396,4.061-0.759V55.355z M50.5,49.27  c-1.438,0.115-4.093-0.201-4.093-4.883c0-2.581,1.702-4.795,4.041-4.795c1.291,0,3.243,0.265,3.243,4.795  C53.69,47.24,52.248,49.125,50.5,49.27z"></path>
</svg>