<svg version="1.1" id="Layer_1" xmlns="http://www.w3.org/2000/svg" xlink="http://www.w3.org/1999/xlink" x="0px" y="0px" width="100px" height="100px" viewBox="-32.522 -20.582 137.899 140" enable-background="new -12.522 -0.582 97.899 100" space="preserve">
<g>
	<path fill="#666" d="M85.377,67.757L57.369,50.329v9.997L9.441,60.322C4.775,60.313,1,56.537,0.996,51.873C1,47.21,4.775,43.435,9.441,43.429
		c4.667,0.005,8.439,3.781,8.447,8.444v4.53h13.514v-4.53c0-12.129-9.827-21.958-21.961-21.962
		c-12.132,0.004-21.958,9.833-21.963,21.962c0.004,12.129,9.831,21.96,21.963,21.967h47.928v11.347L85.377,67.757z M18.169,99.418
		h13.515V78.107H18.169V99.418L18.169,99.418z M36.567,99.417h13.518V78.109H36.567V99.417z M36.567,56.334h13.518v-28.91h10.136
		L42.793-0.582L25.364,27.424h11.203V56.334z"></path>
</g>
</svg>