<svg xmlns="http://www.w3.org/2000/svg" xlink="http://www.w3.org/1999/xlink" version="1.1" baseProfile="tiny" id="Ebene_1" x="0px" y="0px" width="100px" height="100px" viewBox="0 0 500 500" overflow="inherit" space="preserve">
<path fill="#666" d="M460.458,273.464c-6.722,0-12.494,4.056-15.011,9.853h-22.146l-14.341-25.444c-1.145-2.03-3.287-3.294-5.617-3.312  c-0.018,0-0.033,0-0.051,0c-2.311,0-4.45,1.227-5.617,3.224l-25.887,44.313l-28.596-93.39c-0.89-2.904-3.664-4.812-6.7-4.583  c-3.029,0.224-5.5,2.515-5.953,5.518l-25.758,170.883L276.265,64.701c-0.298-3.298-3.026-5.846-6.337-5.919  c-3.327-0.077-6.148,2.354-6.591,5.635l-30.573,226.937l-23.924-47.45c-1.217-2.415-3.803-3.826-6.491-3.541  c-2.689,0.284-4.923,2.202-5.61,4.817l-25.473,96.978l-28.562-182.312c-0.481-3.072-3.07-5.375-6.177-5.494  c-3.111-0.123-5.865,1.977-6.581,5.003l-29.316,123.961H53.501c-2.516-5.797-8.289-9.853-15.011-9.853  c-9.035,0-16.359,7.324-16.359,16.358c0,9.035,7.325,16.359,16.359,16.359c6.722,0,12.495-4.057,15.011-9.854h52.274  c3.016,0,5.637-2.073,6.331-5.009l22.873-96.715l28.247,180.303c0.477,3.043,3.022,5.334,6.098,5.49  c3.073,0.16,5.839-1.865,6.622-4.844l29.012-110.449l25.641,50.854c1.284,2.546,4.077,3.961,6.887,3.486  c2.812-0.473,4.988-2.721,5.369-5.547l25.654-190.412l28.174,312.021c0.296,3.279,2.995,5.82,6.286,5.918  c0.065,0.002,0.131,0.003,0.195,0.003c3.207,0,5.95-2.346,6.431-5.536l29.542-195.99l24.559,80.205  c0.756,2.47,2.902,4.258,5.469,4.557c2.572,0.3,5.065-0.95,6.369-3.181l27.659-47.346l10.641,18.88  c1.152,2.046,3.318,3.312,5.667,3.312h25.947c2.516,5.797,8.289,9.854,15.011,9.854c9.035,0,16.359-7.324,16.359-16.359  C476.817,280.788,469.493,273.464,460.458,273.464z"></path>
</svg>